<?xml version="1.0" encoding="UTF-8"?>
<svg width="613px" height="370px" viewBox="0 0 613 370" version="1.1" xmlns="http://www.w3.org/2000/svg" xmlns:xlink="http://www.w3.org/1999/xlink">
    <!-- Generator: Sketch 45.2 (43514) - http://www.bohemiancoding.com/sketch -->
    <title>Group 3</title>
    <desc>Created with Sketch.</desc>
    <defs></defs>
    <g id="Page-7" stroke="none" stroke-width="1" fill="none" fill-rule="evenodd">
        <g id="Desktop-HD" transform="translate(-756.000000, -2735.000000)">
            <g id="Group-3" transform="translate(756.000000, 2735.000000)">
                <rect id="Rectangle-6" fill="#FFFFFF" x="0" y="0.879038056" width="613" height="369" rx="4"></rect>
                <path d="M502.5,229.879038 C517,232.379038 530.93597,195.863632 525,167.122686 C521.613599,150.726313 505.428597,134.88115 488,118.379038 C476.709907,107.689114 429.858981,97.6848795 424.5,113.379038 C417.5,133.879038 389.226048,135.09017 389.226048,167.122686 C389.226048,188.189817 383.551834,200.54023 389.226048,217.560781 C399,246.879038 422.017498,239.432233 440.726048,239.060781 C453.921079,238.798799 474.647973,225.076964 502.5,229.879038 Z" id="Oval-3" fill="#5CDDFF"></path>
                <rect id="Rectangle-9" fill="#F3F3F3" x="38.337373" y="44.9409425" width="214" height="61" rx="8"></rect>
                <rect id="Rectangle-9" fill="#F3F3F3" x="38.337373" y="123.940231" width="214" height="61" rx="8"></rect>
                <rect id="Rectangle-9" fill="#F3F3F3" x="38.337373" y="200.466657" width="214" height="61" rx="8"></rect>
                <rect id="Rectangle-9" fill="#F3F3F3" x="38.337373" y="276.817134" width="214" height="61" rx="8"></rect>
                <circle id="Oval-3" fill="#FFFFFF" cx="455" cy="175.405464" r="45"></circle>
            </g>
        </g>
    </g>
</svg>